HIERARCHY
ROOT root
{
	OFFSET 0.000000 0.000000 0.000000
	CHANNELS 6 Xposition Yposition Zposition Zrotation Yrotation Xrotation
	JOINT lhip
	{
		OFFSET 0.058581 -0.082280 -0.017664
		CHANNELS 3 Zrotation Yrotation Xrotation
		JOINT lknee
		{
			OFFSET 0.043451 -0.386469 0.008037
			CHANNELS 3 Zrotation Yrotation Xrotation
			JOINT lankle
			{
				OFFSET -0.014790 -0.426874 -0.037428
				CHANNELS 3 Zrotation Yrotation Xrotation
				JOINT ltoe
				{
					OFFSET 0.041054 -0.060286 0.122042
					CHANNELS 3 Zrotation Yrotation Xrotation
					End Site
					{
						OFFSET 0.000000 0.000000 0.000000
					}
				}
			}
		}
	}
	JOINT rhip
	{
		OFFSET -0.060310 -0.090513 -0.013543
		CHANNELS 3 Zrotation Yrotation Xrotation
		JOINT rknee
		{
			OFFSET -0.043257 -0.383688 -0.004843
			CHANNELS 3 Zrotation Yrotation Xrotation
			JOINT rankle
			{
				OFFSET 0.019056 -0.420046 -0.034562
				CHANNELS 3 Zrotation Yrotation Xrotation
				JOINT rtoe
				{
					OFFSET -0.034840 -0.062106 0.130323
					CHANNELS 3 Zrotation Yrotation Xrotation
					End Site
					{
						OFFSET 0.000000 0.000000 0.000000
					}
				}
			}
		}
	}
	JOINT lowerback
	{
		OFFSET 0.004439 0.124404 -0.038385
		CHANNELS 3 Zrotation Yrotation Xrotation
		JOINT upperback
		{
			OFFSET 0.004488 0.137956 0.026820
			CHANNELS 3 Zrotation Yrotation Xrotation
			JOINT chest
			{
				OFFSET -0.002265 0.056032 0.002855
				CHANNELS 3 Zrotation Yrotation Xrotation
				JOINT lowerneck
				{
					OFFSET -0.013390 0.211636 -0.033468
					CHANNELS 3 Zrotation Yrotation Xrotation
					JOINT upperneck
					{
						OFFSET 0.010113 0.088937 0.050410
						CHANNELS 3 Zrotation Yrotation Xrotation
						End Site
						{
							OFFSET 0.000000 0.000000 0.000000
						}
					}
				}
				JOINT lclavicle
				{
					OFFSET 0.071702 0.114000 -0.018898
					CHANNELS 3 Zrotation Yrotation Xrotation
					JOINT lshoulder
					{
						OFFSET 0.122921 0.045205 -0.019046
						CHANNELS 3 Zrotation Yrotation Xrotation
						JOINT lelbow
						{
							OFFSET 0.255332 -0.015649 -0.022946
							CHANNELS 3 Zrotation Yrotation Xrotation
							JOINT lwrist
							{
								OFFSET 0.265709 0.012698 -0.007375
								CHANNELS 3 Zrotation Yrotation Xrotation
								End Site
								{
									OFFSET 0.000000 0.000000 0.000000
								}
							}
						}
					}
				}
				JOINT rclavicle
				{
					OFFSET -0.082954 0.112472 -0.023707
					CHANNELS 3 Zrotation Yrotation Xrotation
					JOINT rshoulder
					{
						OFFSET -0.113228 0.046853 -0.008472
						CHANNELS 3 Zrotation Yrotation Xrotation
						JOINT relbow
						{
							OFFSET -0.260127 -0.014369 -0.031269
							CHANNELS 3 Zrotation Yrotation Xrotation
							JOINT rwrist
							{
								OFFSET -0.269108 0.006794 -0.006027
								CHANNELS 3 Zrotation Yrotation Xrotation
								End Site
								{
									OFFSET 0.000000 0.000000 0.000000
								}
							}
						}
					}
				}
			}
		}
	}
}
MOTION
Frames: 9
Frame Time: 0.033333
-0.887264 1.059595 1.002984 23.058111 -3.842934 90.406002 4.053893 6.028205 -10.822933 -1.399711 7.628071 1.699053 1.756208 15.015928 0.833726 0.000000 -0.000000 0.000000 -4.695269 -7.109290 2.902676 1.106677 -4.594519 8.330949 1.767683 -10.104470 -14.667168 0.000000 -0.000000 0.000000 0.701821 3.585749 9.508228 -1.424579 -2.366496 2.109485 -0.509472 0.557994 -3.238296 -0.817461 4.019208 -8.150912 -0.016567 1.471315 1.811707 -24.816774 6.710890 -2.224995 -54.652349 -1.350688 11.110769 10.055333 -42.489671 4.355933 -6.023275 -13.181669 -1.433767 24.814410 1.479840 2.022989 52.290625 -0.217696 14.632874 -5.733341 35.592512 4.703204 2.937304 8.067782 1.181143 
-0.896265 1.065278 1.003253 23.176059 -4.084935 90.387623 4.310175 6.058270 -10.830013 -1.797717 7.729847 1.191151 1.895662 14.853845 0.057142 0.000000 -0.000000 0.000000 -4.597685 -6.758033 2.473705 1.411043 -4.761126 8.309011 1.496073 -10.215661 -14.315859 0.000000 -0.000000 0.000000 0.907413 3.350569 9.869324 -1.170050 -2.301170 2.266552 -0.532011 0.547484 -3.329707 -0.919271 3.427169 -8.373650 -0.086019 1.768776 2.067395 -25.070378 7.214115 -1.862432 -55.254306 -0.985905 11.717090 10.111315 -43.011034 5.217797 -6.113480 -13.161436 -1.527443 24.672148 1.378687 2.083017 51.633208 -0.151077 14.352027 -6.157543 34.538729 4.285035 3.930357 7.745083 0.623598 
-0.904528 1.070210 1.004278 23.622601 -4.474507 90.276700 4.484443 5.723518 -10.892672 -2.186004 7.813978 1.168918 1.219716 15.050675 -1.560690 0.000000 -0.000000 0.000000 -4.588549 -6.754701 1.956470 1.497833 -4.917829 8.702356 1.509881 -10.495977 -14.280884 0.000000 -0.000000 0.000000 1.032931 3.177445 9.956690 -0.997083 -2.459170 2.580618 -0.541109 0.183121 -3.273958 -0.946314 3.218106 -8.319089 -0.137577 2.020688 1.836363 -25.482717 7.948780 -1.950347 -55.495025 -0.816938 11.979646 9.917484 -42.162653 6.073988 -6.038244 -13.523055 -1.191436 24.880156 1.052156 1.616144 51.115719 0.251561 13.867218 -6.298233 32.571308 3.147241 3.078282 7.981704 0.200191 
-0.911789 1.075679 1.005872 23.868331 -4.990012 89.765169 4.580167 4.700759 -10.697733 -2.081283 5.570526 2.448710 1.342088 14.160132 -2.638633 0.000000 -0.000000 0.000000 -4.709954 -6.463635 1.457584 1.280593 -4.899198 9.534927 1.393607 -10.910515 -14.230271 0.000000 -0.000000 0.000000 1.051926 2.988408 10.649559 -0.653137 -2.728682 2.573514 -0.507800 0.195852 -3.042771 -1.128714 3.465470 -8.373800 -0.290223 1.804939 1.511149 -25.596372 8.205845 -1.917067 -56.024016 -0.200812 12.098912 9.704162 -40.703437 6.504617 -7.322316 -13.256493 -0.383535 24.938047 0.664930 1.018423 50.397705 0.285342 13.219369 -7.871555 30.792123 2.430704 4.456423 7.265777 2.071700 
-0.915866 1.077940 1.006370 23.594096 -5.161280 89.460710 5.303083 3.981842 -10.473679 -2.603542 4.372998 3.973095 0.891408 13.725300 -3.384734 0.000000 -0.000000 0.000000 -4.703410 -6.197132 1.281101 1.301091 -4.759755 9.979084 1.143271 -10.817090 -14.257311 0.000000 -0.000000 0.000000 1.089893 3.119618 10.833429 -0.536454 -2.639251 2.556622 -0.394722 0.108635 -2.846043 -1.173523 3.542923 -8.155458 -0.457328 1.992164 1.445747 -25.646841 8.388670 -1.613064 -56.053546 0.077094 11.964287 9.222098 -39.558422 7.033045 -7.043321 -13.117132 -0.658550 25.030733 0.590649 1.043603 50.085620 0.294044 12.643093 -8.415576 29.615951 1.433649 2.978421 7.219635 1.715201 
-0.919860 1.080836 1.007402 23.061558 -5.812820 89.250530 5.520032 3.114238 -10.285668 -3.030293 2.831672 6.723521 0.517813 13.293847 -4.519647 0.000000 -0.000000 0.000000 -5.129254 -6.039783 0.909287 1.101769 -4.360945 10.360397 0.770771 -10.893418 -14.196906 0.000000 -0.000000 0.000000 0.489833 3.377649 10.429359 -0.300214 -2.751118 3.639976 -0.314791 0.012898 -3.254132 -1.189024 3.731920 -7.975728 -0.162130 2.099628 1.273500 -25.819482 8.805727 -1.710002 -56.067031 0.604644 11.849702 9.290736 -37.558812 6.549320 -7.842272 -13.006588 -0.063587 25.468105 0.413200 0.765347 49.340949 0.316076 12.057510 -8.597048 28.295743 0.538400 3.900455 7.246875 1.802438 
-0.922142 1.081740 1.007428 22.541403 -5.816696 88.879501 6.494671 2.647706 -9.357608 -3.640057 1.291349 9.003666 -0.031886 12.184383 -4.546893 0.000000 -0.000000 0.000000 -5.176395 -6.021150 1.116374 1.296966 -4.096927 10.275899 0.545805 -10.593553 -14.149447 0.000000 -0.000000 0.000000 0.843284 3.351693 10.497956 -0.245466 -2.738114 3.363956 -0.387025 0.011205 -3.000310 -1.296474 3.856085 -7.791712 -0.090874 1.798981 0.946828 -25.614682 9.035323 -1.487926 -56.170614 1.279519 11.451498 9.211676 -35.421538 6.607939 -7.627687 -12.606531 -0.320664 25.358235 0.036137 0.853447 49.327246 0.195862 11.311769 -9.365065 27.728864 -0.699598 3.405787 7.278485 1.786534 
-0.923845 1.084323 1.007676 21.638488 -6.127200 88.797720 6.982607 2.670449 -8.808470 -4.024699 0.995196 11.549835 -0.459019 12.111634 -4.608418 0.000000 -0.000000 0.000000 -5.520210 -5.632346 0.881073 1.382664 -3.592619 10.375971 0.294693 -10.498126 -14.012142 0.000000 -0.000000 0.000000 0.839704 3.172403 10.291292 -0.249095 -2.612568 3.371152 -0.557126 -0.000493 -2.865028 -1.288572 3.980791 -7.326472 -0.480574 1.864724 0.558165 -25.651611 9.647220 -1.498604 -55.778889 1.757750 11.132471 9.127678 -33.126557 6.341764 -7.791411 -12.276869 -0.328581 25.346284 -0.458483 0.499244 48.948270 0.143744 11.369084 -8.765520 27.456913 -0.248561 3.126780 7.214378 2.028970 
-0.924664 1.085464 1.007772 20.596253 -6.145749 88.747401 7.857909 2.708589 -7.737480 -4.182166 0.860491 13.432304 -0.819725 11.942039 -5.011439 0.000000 -0.000000 0.000000 -5.708360 -5.691149 0.748898 1.580386 -2.996634 10.431203 0.195084 -9.848286 -13.759618 0.000000 -0.000000 0.000000 1.029155 3.215845 9.683946 -0.162820 -2.636630 3.786399 -0.737295 0.100465 -2.716185 -1.187636 4.973896 -7.652387 -0.992329 2.060170 0.840151 -25.717402 9.968340 -1.777650 -55.093855 2.415757 10.801059 8.547884 -30.761069 6.264985 -7.724594 -12.101049 -0.427758 25.313714 -0.983478 0.609598 48.558016 0.410031 10.986470 -8.137435 27.454110 -0.417812 3.224294 7.374909 2.519981 
